<svg width="85" height="85" viewBox="0 0 85 85" fill="none" xmlns="http://www.w3.org/2000/svg">
<path d="M4.5 17.5H10.7874L22.1488 27.9591V36.1L11.4492 26.0183V48.5H4.5V17.5ZM35.5508 39.7661V17.5H42.5V48.5H35.992L24.6306 37.8252V29.9539L35.5508 39.7661Z" fill="black"/>
<path d="M63.6132 17.5L63.6414 46.8039C61.9808 45.8595 60.067 45.2762 58.0124 45.2762C56.5128 45.2431 55.0217 45.5061 53.6265 46.0495C52.2312 46.593 50.9601 47.4061 49.8877 48.4411C48.8153 49.4761 47.9632 50.7121 47.3814 52.0765C46.7997 53.441 46.5 54.9064 46.5 56.3867C46.5 57.8671 46.7997 59.3325 47.3814 60.6969C47.9632 62.0614 48.8153 63.2974 49.8877 64.3324C50.9601 65.3673 52.2312 66.1804 53.6265 66.7239C55.0217 67.2674 56.5128 67.5303 58.0124 67.4972C64.2605 67.4972 69.2421 62.5253 69.2421 56.3867V23.5L80.5 23.5V17.5H63.6132ZM58.0124 61.942C54.9165 61.942 52.3835 59.4421 52.3835 56.3867C52.3835 53.3313 54.9165 50.8315 58.0124 50.8315C61.1083 50.8315 63.6414 53.3313 63.6414 56.3867C63.6414 59.4421 61.1083 61.942 58.0124 61.942Z" fill="black"/>
<path d="M80.5 23.5922H66.7061V48.5H60.0965V17.5H57.5V23.5922H47.5V17.5H60.0965H80.5V23.5922Z" fill="black"/>
</svg>
